{
	"patcher" : 	{
		"fileversion" : 1,
		"appversion" : 		{
			"major" : 6,
			"minor" : 1,
			"revision" : 0,
			"architecture" : "x64"
		}
,
		"rect" : [ 358.0, 285.0, 614.0, 173.0 ],
		"bgcolor" : [ 1.0, 1.0, 1.0, 0.0 ],
		"bglocked" : 0,
		"openinpresentation" : 1,
		"default_fontsize" : 12.0,
		"default_fontface" : 0,
		"default_fontname" : "Arial",
		"gridonopen" : 0,
		"gridsize" : [ 15.0, 15.0 ],
		"gridsnaponopen" : 0,
		"statusbarvisible" : 0,
		"toolbarvisible" : 1,
		"boxanimatetime" : 200,
		"imprint" : 0,
		"enablehscroll" : 1,
		"enablevscroll" : 1,
		"devicewidth" : 0.0,
		"description" : "",
		"digest" : "",
		"tags" : "",
		"boxes" : [ 			{
				"box" : 				{
					"fontname" : "Arial",
					"fontsize" : 12.0,
					"id" : "obj-10",
					"maxclass" : "newobj",
					"numinlets" : 1,
					"numoutlets" : 1,
					"outlettype" : [ "bang" ],
					"patching_rect" : [ 96.0, 35.0, 60.0, 20.0 ],
					"text" : "loadbang"
				}

			}
, 			{
				"box" : 				{
					"fontname" : "Arial",
					"fontsize" : 12.0,
					"id" : "obj-17",
					"maxclass" : "message",
					"numinlets" : 2,
					"numoutlets" : 1,
					"outlettype" : [ "" ],
					"patching_rect" : [ 440.833313, 287.0, 43.0, 18.0 ],
					"text" : "set $1"
				}

			}
, 			{
				"box" : 				{
					"comment" : "",
					"id" : "obj-12",
					"maxclass" : "outlet",
					"numinlets" : 1,
					"numoutlets" : 0,
					"patching_rect" : [ 440.833313, 317.0, 25.0, 25.0 ]
				}

			}
, 			{
				"box" : 				{
					"comment" : "",
					"id" : "obj-6",
					"maxclass" : "inlet",
					"numinlets" : 0,
					"numoutlets" : 1,
					"outlettype" : [ "" ],
					"patching_rect" : [ 448.0, 12.0, 25.0, 25.0 ]
				}

			}
, 			{
				"box" : 				{
					"fontname" : "Arial",
					"fontsize" : 12.0,
					"id" : "obj-9",
					"maxclass" : "newobj",
					"numinlets" : 1,
					"numoutlets" : 1,
					"outlettype" : [ "" ],
					"patching_rect" : [ 24.0, 73.0, 72.0, 20.0 ],
					"text" : "loadmess 1"
				}

			}
, 			{
				"box" : 				{
					"id" : "obj-8",
					"maxclass" : "toggle",
					"numinlets" : 1,
					"numoutlets" : 1,
					"outlettype" : [ "int" ],
					"parameter_enable" : 0,
					"patching_rect" : [ 29.0, 150.0, 20.0, 20.0 ]
				}

			}
, 			{
				"box" : 				{
					"fontname" : "Arial",
					"fontsize" : 12.0,
					"id" : "obj-7",
					"maxclass" : "message",
					"numinlets" : 2,
					"numoutlets" : 1,
					"outlettype" : [ "" ],
					"patching_rect" : [ 194.0, 73.0, 37.0, 18.0 ],
					"text" : "clear"
				}

			}
, 			{
				"box" : 				{
					"bgcolor" : [ 0.0, 0.8, 1.0, 1.0 ],
					"bgoncolor" : [ 0.266667, 0.266667, 0.266667, 1.0 ],
					"bgovercolor" : [ 0.0, 0.8, 1.0, 1.0 ],
					"bgoveroncolor" : [ 0.266667, 0.266667, 0.266667, 1.0 ],
					"border" : 1,
					"bordercolor" : [ 0.0, 0.0, 0.0, 1.0 ],
					"borderoncolor" : [ 0.0, 0.0, 0.0, 1.0 ],
					"fontface" : 1,
					"fontname" : "Helvetica Neue Bold",
					"fontsize" : 10.0,
					"id" : "obj-34",
					"maxclass" : "textbutton",
					"mode" : 1,
					"numinlets" : 1,
					"numoutlets" : 3,
					"outlettype" : [ "", "", "int" ],
					"parameter_enable" : 0,
					"patching_rect" : [ 54.0, 112.0, 23.0, 15.0 ],
					"presentation" : 1,
					"presentation_rect" : [ 3.0, 1.0, 20.0, 15.0 ],
					"rounded" : 4.0,
					"text" : "I",
					"textcolor" : [ 1.0, 1.0, 1.0, 1.0 ],
					"texton" : "O",
					"textovercolor" : [ 1.0, 1.0, 1.0, 1.0 ],
					"textoveroncolor" : [ 1.0, 1.0, 1.0, 1.0 ]
				}

			}
, 			{
				"box" : 				{
					"fontname" : "Arial",
					"fontsize" : 13.0,
					"id" : "obj-20",
					"maxclass" : "message",
					"numinlets" : 2,
					"numoutlets" : 1,
					"outlettype" : [ "" ],
					"patching_rect" : [ 76.0, 140.0, 70.0, 19.0 ],
					"text" : "bypass $1"
				}

			}
, 			{
				"box" : 				{
					"bgcolor" : [ 0.615686, 0.552941, 0.827451, 0.74 ],
					"id" : "obj-19",
					"maxclass" : "button",
					"numinlets" : 1,
					"numoutlets" : 1,
					"outlettype" : [ "bang" ],
					"outlinecolor" : [ 0.172767, 0.169394, 0.165076, 1.0 ],
					"patching_rect" : [ 256.0, 92.0, 40.0, 40.0 ],
					"presentation" : 1,
					"presentation_rect" : [ 70.0, 1.0, 15.0, 15.0 ]
				}

			}
, 			{
				"box" : 				{
					"align" : 1,
					"arrow" : 0,
					"arrowframe" : 0,
					"arrowlink" : 0,
					"bgcolor" : [ 0.615686, 0.552941, 0.827451, 0.64 ],
					"bgcolor2" : [ 0.207843, 0.007843, 0.403922, 1.0 ],
					"fontface" : 1,
					"fontname" : "Arial",
					"fontsize" : 8.0,
					"framecolor" : [ 0.501961, 0.501961, 0.501961, 0.0 ],
					"id" : "obj-13",
					"items" : [ "null", ",", "+binaural.vst", ",", "+bubbler.vst", ",", "+chebyshev.vst", ",", "+compand.vst", ",", "+decimate.vst", ",", "+delay.vst", ",", "+matrix.vst", ",", "+morphfilter.vst", ",", "+phasescope.vst", ",", "+pitchdelay.vst", ",", "+spectralcompand.vst", ",", "+spectralgate.vst", ",", "ARIA Player VST Multi.vst", ",", "ARIA Player VST.vst", ",", "FabFilter Micro (Mono).vst", ",", "FabFilter Micro.vst", ",", "FabFilter One.vst", ",", "FabFilter Pro-C (Mono).vst", ",", "FabFilter Pro-C (SC Mono).vst", ",", "FabFilter Pro-C (SC).vst", ",", "FabFilter Pro-C.vst", ",", "FabFilter Pro-DS (Mono).vst", ",", "FabFilter Pro-DS.vst", ",", "FabFilter Pro-G (Mono).vst", ",", "FabFilter Pro-G.vst", ",", "FabFilter Pro-L (Mono).vst", ",", "FabFilter Pro-L.vst", ",", "FabFilter Pro-Q (Mono).vst", ",", "FabFilter Pro-Q.vst", ",", "FabFilter Saturn (Mono).vst", ",", "FabFilter Saturn.vst", ",", "FabFilter Simplon.vst", ",", "FabFilter Timeless 2 (SC).vst", ",", "FabFilter Timeless 2.vst", ",", "FabFilter Twin 2.vst", ",", "FabFilter Volcano 2 (Mono).vst", ",", "FabFilter Volcano 2 (SC Mono).vst", ",", "FabFilter Volcano 2 (SC).vst", ",", "FabFilter Volcano 2.vst", ",", "JACK-insert.vst", ",", "Kontakt 3 16out.vst", ",", "Kontakt 3 8out.vst", ",", "Kontakt 3.vst", ",", "Vandal.vst", ",", "ARIA Player.auinfo", ",", "AUAudioFilePlayer.auinfo", ",", "AUBandpass.auinfo", ",", "AUDelay.auinfo", ",", "AUDistortion.auinfo", ",", "AUDynamicsProcessor.auinfo", ",", "AUFilter.auinfo", ",", "AUGraphicEQ.auinfo", ",", "AUHighShelfFilter.auinfo", ",", "AUHipass.auinfo", ",", "AULowpass.auinfo", ",", "AULowShelfFilter.auinfo", ",", "AUMatrixMixer.auinfo", ",", "AUMatrixReverb.auinfo", ",", "AUMixer.auinfo", ",", "AUMixer3D.auinfo", ",", "AUMultibandCompressor.auinfo", ",", "AUMultiChannelMixer.auinfo", ",", "AUNetReceive.auinfo", ",", "AUNetSend.auinfo", ",", "AUParametricEQ.auinfo", ",", "AUPeakLimiter.auinfo", ",", "AUPitch.auinfo", ",", "AURogerBeep.auinfo", ",", "AUSampleDelay.auinfo", ",", "AUSampler.auinfo", ",", "AUScheduledSoundPlayer.auinfo", ",", "AUSoundFieldPanner.auinfo", ",", "AUSphericalHeadPanner.auinfo", ",", "AUVectorPanner.auinfo", ",", "DLSMusicDevice.auinfo", ",", "FF Micro.auinfo", ",", "FF One.auinfo", ",", "FF Pro-C (Mono).auinfo", ",", "FF Pro-C.auinfo", ",", "FF Pro-DS.auinfo", ",", "FF Pro-G.auinfo", ",", "FF Pro-L.auinfo", ",", "FF Pro-Q.auinfo", ",", "FF Saturn.auinfo", ",", "FF Simplon.auinfo", ",", "FF Timeless 2.auinfo", ",", "FF Twin 2.auinfo", ",", "FF Volcano 2 (Mono).auinfo", ",", "FF Volcano 2.auinfo", ",", "HRTFPanner.auinfo", ",", "RoundTripAAC.auinfo", ",", "Vandal.auinfo" ],
					"maxclass" : "umenu",
					"numinlets" : 1,
					"numoutlets" : 3,
					"outlettype" : [ "int", "", "" ],
					"parameter_enable" : 0,
					"patching_rect" : [ 96.0, 112.0, 79.0, 15.0 ],
					"prefix" : "plug",
					"prefix_mode" : 1,
					"presentation" : 1,
					"presentation_rect" : [ 23.0, 1.0, 47.0, 15.0 ],
					"rounded" : 0,
					"textcolor2" : [ 0.825554, 0.825554, 0.825554, 1.0 ]
				}

			}
, 			{
				"box" : 				{
					"fontname" : "Arial",
					"fontsize" : 12.0,
					"id" : "obj-16",
					"maxclass" : "newobj",
					"numinlets" : 1,
					"numoutlets" : 1,
					"outlettype" : [ "" ],
					"patching_rect" : [ 96.0, 73.0, 87.0, 20.0 ],
					"saved_object_attributes" : 					{
						"filename" : "get_plugs.js",
						"parameter_enable" : 0
					}
,
					"text" : "js get_plugs.js"
				}

			}
, 			{
				"box" : 				{
					"fontname" : "Arial",
					"fontsize" : 12.0,
					"id" : "obj-22",
					"maxclass" : "message",
					"numinlets" : 2,
					"numoutlets" : 1,
					"outlettype" : [ "" ],
					"patching_rect" : [ 175.0, 140.0, 37.0, 18.0 ],
					"text" : "open"
				}

			}
, 			{
				"box" : 				{
					"fontname" : "Arial",
					"fontsize" : 12.0,
					"id" : "obj-5",
					"maxclass" : "newobj",
					"numinlets" : 2,
					"numoutlets" : 8,
					"outlettype" : [ "signal", "signal", "", "list", "int", "", "", "" ],
					"patching_rect" : [ 194.0, 247.0, 164.0, 20.0 ],
					"save" : [ "#N", "vst~", "loaduniqueid", 0, ";" ],
					"text" : "vst~"
				}

			}
, 			{
				"box" : 				{
					"comment" : "",
					"id" : "obj-4",
					"maxclass" : "outlet",
					"numinlets" : 1,
					"numoutlets" : 0,
					"patching_rect" : [ 298.833313, 317.0, 25.0, 25.0 ]
				}

			}
, 			{
				"box" : 				{
					"comment" : "",
					"id" : "obj-3",
					"maxclass" : "outlet",
					"numinlets" : 1,
					"numoutlets" : 0,
					"patching_rect" : [ 194.0, 317.0, 25.0, 25.0 ]
				}

			}
, 			{
				"box" : 				{
					"comment" : "",
					"id" : "obj-2",
					"maxclass" : "inlet",
					"numinlets" : 0,
					"numoutlets" : 1,
					"outlettype" : [ "" ],
					"patching_rect" : [ 339.0, 12.0, 25.0, 25.0 ]
				}

			}
, 			{
				"box" : 				{
					"comment" : "",
					"id" : "obj-1",
					"maxclass" : "inlet",
					"numinlets" : 0,
					"numoutlets" : 1,
					"outlettype" : [ "" ],
					"patching_rect" : [ 194.0, 12.0, 25.0, 25.0 ]
				}

			}
 ],
		"lines" : [ 			{
				"patchline" : 				{
					"destination" : [ "obj-5", 0 ],
					"disabled" : 0,
					"hidden" : 0,
					"source" : [ "obj-1", 0 ]
				}

			}
, 			{
				"patchline" : 				{
					"destination" : [ "obj-16", 0 ],
					"disabled" : 0,
					"hidden" : 0,
					"source" : [ "obj-10", 0 ]
				}

			}
, 			{
				"patchline" : 				{
					"destination" : [ "obj-5", 0 ],
					"disabled" : 0,
					"hidden" : 0,
					"source" : [ "obj-13", 1 ]
				}

			}
, 			{
				"patchline" : 				{
					"destination" : [ "obj-13", 0 ],
					"disabled" : 0,
					"hidden" : 0,
					"source" : [ "obj-16", 0 ]
				}

			}
, 			{
				"patchline" : 				{
					"destination" : [ "obj-12", 0 ],
					"disabled" : 0,
					"hidden" : 0,
					"source" : [ "obj-17", 0 ]
				}

			}
, 			{
				"patchline" : 				{
					"destination" : [ "obj-16", 0 ],
					"disabled" : 0,
					"hidden" : 0,
					"source" : [ "obj-19", 0 ]
				}

			}
, 			{
				"patchline" : 				{
					"destination" : [ "obj-22", 0 ],
					"disabled" : 0,
					"hidden" : 0,
					"source" : [ "obj-19", 0 ]
				}

			}
, 			{
				"patchline" : 				{
					"destination" : [ "obj-5", 1 ],
					"disabled" : 0,
					"hidden" : 0,
					"source" : [ "obj-2", 0 ]
				}

			}
, 			{
				"patchline" : 				{
					"destination" : [ "obj-5", 0 ],
					"disabled" : 0,
					"hidden" : 0,
					"source" : [ "obj-20", 0 ]
				}

			}
, 			{
				"patchline" : 				{
					"destination" : [ "obj-5", 0 ],
					"disabled" : 0,
					"hidden" : 0,
					"source" : [ "obj-22", 0 ]
				}

			}
, 			{
				"patchline" : 				{
					"destination" : [ "obj-17", 0 ],
					"disabled" : 0,
					"hidden" : 0,
					"source" : [ "obj-34", 0 ]
				}

			}
, 			{
				"patchline" : 				{
					"destination" : [ "obj-20", 0 ],
					"disabled" : 0,
					"hidden" : 0,
					"source" : [ "obj-34", 0 ]
				}

			}
, 			{
				"patchline" : 				{
					"destination" : [ "obj-8", 0 ],
					"disabled" : 0,
					"hidden" : 0,
					"source" : [ "obj-34", 0 ]
				}

			}
, 			{
				"patchline" : 				{
					"destination" : [ "obj-3", 0 ],
					"disabled" : 0,
					"hidden" : 0,
					"source" : [ "obj-5", 0 ]
				}

			}
, 			{
				"patchline" : 				{
					"destination" : [ "obj-4", 0 ],
					"disabled" : 0,
					"hidden" : 0,
					"midpoints" : [ 224.214286, 285.0, 308.333313, 285.0 ],
					"source" : [ "obj-5", 1 ]
				}

			}
, 			{
				"patchline" : 				{
					"destination" : [ "obj-34", 0 ],
					"disabled" : 0,
					"hidden" : 0,
					"source" : [ "obj-6", 0 ]
				}

			}
, 			{
				"patchline" : 				{
					"destination" : [ "obj-13", 0 ],
					"disabled" : 0,
					"hidden" : 0,
					"source" : [ "obj-7", 0 ]
				}

			}
, 			{
				"patchline" : 				{
					"destination" : [ "obj-34", 0 ],
					"disabled" : 0,
					"hidden" : 0,
					"source" : [ "obj-9", 0 ]
				}

			}
 ],
		"dependency_cache" : [ 			{
				"name" : "get_plugs.js",
				"bootpath" : "/Users/JJHartmann/Dropbox/SFU FILES - ALL/Ipsum Sola/Ipsum Sola v0.4.X/Ipsum Sola/code",
				"patcherrelativepath" : "./code",
				"type" : "TEXT",
				"implicit" : 1
			}
 ]
	}

}
